<?xml version="1.0" encoding="UTF-8"?>
<svg id="Layer_1" data-name="Layer 1" xmlns="http://www.w3.org/2000/svg" viewBox="0 0 479.96 450.17">
  <defs>
    <style>
      .cls-1 {
        fill: #0a0c0c;
      }

      .cls-2 {
        fill: #010101;
        font-family: ShowcardGothic-Reg, 'Showcard Gothic';
        font-size: 22.95px;
      }

      .cls-3 {
        fill: #080b0b;
      }

      .cls-4 {
        fill: #0b0d0d;
      }

      .cls-5 {
        fill: #0f1011;
      }

      .cls-6 {
        fill: #6c6969;
      }

      .cls-7 {
        fill: #5d5a59;
      }

      .cls-8 {
        fill: #c8b299;
      }
    </style>
  </defs>
  <ellipse class="cls-8" cx="239.98" cy="213.02" rx="239.98" ry="213.02"/>
  <g>
    <path class="cls-3" d="M284.22,257.25c-3.79,1.3-7.35,2.59-10.96,3.75-6.41,2.06-12.91,3.83-19.48,5.34-2.86,.66-5.76,1.16-8.64,1.68-5.76,1.04-11.57,1.54-17.42,1.48-5.56-.06-11.05-.78-16.49-2-7.01-1.57-14-3.22-20.85-5.43-8.12-2.62-15.92-5.95-23.26-10.34-6.16-3.69-11.93-7.89-17.26-12.7-4.16-3.75-7.97-7.83-11.37-12.27-3.2-4.18-5.9-8.67-8.16-13.43-3.58-7.54-5.91-15.47-7.53-23.63-1.16-5.84-1.93-11.74-2.56-17.65-.46-4.31-.79-8.64-1.2-12.95-.48-4.97-.96-9.94-1.47-14.91-1-9.73-2.93-19.3-5.04-28.84-2.6-11.75-5.62-23.39-9.04-34.92-2.85-9.63-5.85-19.23-8.78-28.84-.08-.27-.15-.55-.25-.92,10.82,6.18,20.16,14.11,29.24,22.39,4.45,4.05,8.73,8.29,12.83,12.7,3.55,3.81,6.98,7.75,10.42,11.67,3.76,4.28,7.22,8.79,10.57,13.4,3.48,4.79,6.65,9.77,9.42,15.01,2.7,5.13,5.17,10.37,7.59,15.63,.35,.77,.74,1.52,1.07,2.3,.62,1.48,1.22,2.97,1.82,4.44,.05-.13,.18-.38,.26-.64,1.17-3.87,2.07-7.81,2.75-11.78,1-5.86,1.93-11.74,2.76-17.63,.74-5.23,1.34-10.49,1.9-15.74,.54-5,.95-10.02,1.41-15.03,0-.07,.04-.13,.09-.32,.16,.19,.29,.33,.4,.47,.95,1.26,1.81,2.59,2.86,3.75,1.74,1.92,3.14,4.07,4.56,6.21,3.57,5.36,6.71,10.96,9.61,16.7,3.9,7.73,6.77,15.83,8.71,24.27,1.14,4.94,2,9.93,2.51,14.98,.43,4.28,.69,8.57,.55,12.87-.16,4.68-.74,9.28-1.99,13.81-1.06,3.83-3.08,7.1-5.43,10.24-1.86,2.5-3.68,5.05-5.3,7.71-2.99,4.93-3.78,10.27-2.48,15.9,.1,.45,.29,.87,.65,1.28,0-.56-.02-1.11,0-1.67,.14-3.03,1.16-5.8,2.41-8.52,1.68-3.65,3.78-7.05,6.1-10.3,5.78-8.11,10.39-16.85,14.27-25.99,1.67-3.95,3.23-7.94,4.84-11.92,.11-.27,.22-.54,.39-.96,.79,1.53,1.68,2.88,2.07,4.46,1.23,4.99,2.49,9.96,3.62,14.98,.8,3.59,1.16,7.26,1.05,10.95-.16,5.74-1.6,11.17-4.1,16.32-1.27,2.62-2.74,5.14-4.78,7.23-1.3,1.33-2.81,2.46-4.22,3.67-2.15,1.85-3.93,3.94-4.66,6.78-.61,2.39-.44,4.74,.21,7.07,.8,2.89,2.15,5.53,3.84,8,2.34,3.41,5.02,6.51,8.09,9.29,4.14,3.74,9.01,6.13,14.33,7.67,3.56,1.03,7.19,1.75,10.86,2.26,2.91,.41,5.81,.89,8.73,1.2,3.84,.41,7.68,.72,11.53,.98,2.6,.18,5.22,.22,7.82,.32,.13,0,.26,.08,.6,.19Z"/>
    <path class="cls-1" d="M363.41,181.18c-.82,2.82-1.6,5.65-2.47,8.45-3.04,9.77-6.19,19.51-9.76,29.1-2.85,7.67-5.97,15.23-9.66,22.53-3.87,7.65-8.32,14.93-13.71,21.61-5.79,7.18-12.44,13.46-20.11,18.62-4.45,2.99-9.12,5.59-14.01,7.77-6.58,2.93-13.41,5.09-20.45,6.62-4.99,1.09-10.03,1.88-15.08,2.56-3.53,.47-7.07,.81-10.62,1.18-3.32,.36-6.64,.7-9.97,1.03-1.94,.19-3.88,.33-5.82,.53-3.1,.31-6.2,.64-9.3,.99-3.25,.37-6.49,.73-9.73,1.18-2.69,.37-5.37,.84-8.05,1.27-5.69,.91-11.29,2.25-16.8,3.93-8.52,2.58-16.38,6.51-23.58,11.79-7.85,5.76-14.54,12.61-20.11,20.6-3.55,5.1-6.55,10.52-9.44,16.01-1.64,3.11-3.29,6.23-5.02,9.29-.81,1.43-1.83,2.74-2.76,4.1-.05,.08-.17,.12-.45,.3,.21-.94,.37-1.7,.54-2.45,1.47-6.32,2.93-12.65,4.43-18.97,1.76-7.43,3.76-14.79,6.22-22.02,2.77-8.15,6.53-15.77,11.62-22.71,4-5.45,8.63-10.28,14.37-13.94,.31-.2,.62-.39,.93-.59,.06-.04,.1-.1,.21-.22-.15-.09-.27-.22-.41-.25-5.11-.83-10.21-1.68-15.32-2.48-4.72-.74-9.49-1-14.26-1.17-3.27-.12-6.55-.12-9.82-.08-1.39,.02-2.77,.28-4.15,.43-1.75,.19-3.5,.4-5.25,.56-3.23,.29-6.39,.87-9.48,1.87-5.55,1.79-11,3.85-16.32,6.24-8.78,3.95-16.84,9.03-24.01,15.49-3.65,3.29-7.29,6.6-10.97,9.86-1.92,1.7-3.86,3.39-6.07,4.72-.29,.18-.62,.3-1.06,.29,.47-.68,.95-1.35,1.4-2.04,2.94-4.52,5.89-9.04,8.81-13.58,3.37-5.25,6.83-10.43,10.61-15.4,5.11-6.7,10.7-12.95,17.21-18.33,4.71-3.9,9.78-7.24,15.31-9.85,4.72-2.23,9.63-3.93,14.76-4.95,3.1-.61,6.22-1.02,9.38-1.25,3.83-.27,7.65-.11,11.44,.32,3.61,.41,7.2,.99,10.78,1.63,5.16,.93,10.3,1.99,15.45,2.98,4.58,.88,9.15,1.77,13.74,2.57,3.84,.67,7.69,1.24,11.54,1.82,4.42,.67,8.86,1.28,13.28,1.99,5.15,.82,10.27,1.76,15.42,2.57,3.7,.59,7.42,1.1,11.17,1.21,2.97,.09,5.95,.17,8.93,.1,3.82-.1,7.63-.4,11.41-.95,5.08-.74,10.18-1.41,15.24-2.28,5.82-1,11.62-2.09,17.39-3.34,6.38-1.38,12.61-3.32,18.57-6.03,5.2-2.37,9.98-5.41,14.49-8.9,5.98-4.64,11.46-9.85,16.84-15.16,2.4-2.37,4.77-4.78,7.04-7.27,3.02-3.33,5.45-7.09,7.7-10.96,3.08-5.3,5.82-10.78,8.36-16.37,3.35-7.38,6.33-14.92,8.97-22.59,.07-.21,.17-.4,.26-.6l.2,.64Z"/>
    <path class="cls-1" d="M410.6,156.69c-.19,.06-.4,.2-.58,.17-4.16-.66-8.35-.62-12.54-.7-3.34-.06-6.69-.06-10.03-.2-4.22-.18-8.43-.59-12.61-1.23-5.96-.92-11.78-2.41-17.6-3.95-3.79-1-7.61-1.92-11.46-2.66-5-.97-10.05-1.23-15.14-.77-6.88,.62-13.42,2.44-19.51,5.68-5.61,2.98-10.44,6.94-14.16,12.14-3.17,4.43-5.21,9.32-6.04,14.72-1.04,6.71,0,13.17,2.21,19.5,1.8,5.11,4.33,9.87,7.13,14.48,.51,.85,1.13,1.63,1.67,2.46,.29,.45,.51,.96,.84,1.58-.4-.05-.64-.04-.86-.1-5.96-1.72-11.54-4.28-16.73-7.67-5.42-3.54-10.2-7.81-14.32-12.79-3.65-4.41-6.64-9.23-8.87-14.52-1.68-3.98-2.9-8.09-3.44-12.36-1.38-10.74,1.01-20.49,7.76-29.07,4.19-5.32,9.44-9.37,15.37-12.57,5.83-3.14,12.04-5.16,18.55-6.29,4.13-.72,8.31-.89,12.52-.85,6.58,.06,12.4,2.4,17.98,5.58,5.11,2.91,9.87,6.33,14.64,9.76,3.13,2.25,6.28,4.45,9.44,6.66,4.92,3.44,10.32,5.87,16.03,7.65,4.14,1.29,8.37,2.2,12.67,2.74,3.87,.49,7.76,.7,11.65,.89,3.82,.19,7.63,.52,11.44,.79,.99,.07,1.98,.14,2.97,.26,.36,.04,.71,.23,1.06,.35-.02,.11-.03,.21-.05,.32Z"/>
    <path class="cls-4" d="M464.01,144.81c-3.25,2.58-6.69,4.89-10.38,6.78-2.87,1.47-5.74,2.95-8.68,4.25-3.14,1.38-6.36,2.61-9.58,3.81-4.16,1.55-8.44,2.72-12.77,3.72-3.97,.91-7.98,1.64-12.02,2.16-4.04,.53-8.09,.94-12.17,1.11-3.23,.13-6.46,.27-9.69,.42-4.99,.22-9.99,.35-14.98,.71-4.39,.32-8.75,.99-12.88,2.63-3.99,1.58-7.61,3.77-10.79,6.68-.93,.85-1.57,1.91-2.16,3.02-1.96,3.68-2.98,7.64-3.51,11.75-.66,5.14-1.25,10.29-1.99,15.41-.82,5.64-2.24,11.14-4.64,16.35-3.71,8.04-9.48,14.2-17.01,18.79-5.91,3.6-12.31,5.97-18.98,7.71-2.52,.66-5.06,1.19-7.67,1.37-1.61,.11-3.2,.39-4.8,.59-.33,.04-.66,.04-1.17,.06,.29-.27,.46-.44,.64-.59,4.61-3.69,8.69-7.89,12.05-12.75,3.02-4.37,5.32-9.11,7.11-14.1,1.58-4.38,2.83-8.86,4-13.37,1.81-7,3.57-14.01,5.96-20.85,1.88-5.38,4.02-10.64,7.07-15.48,2.35-3.73,5.04-7.17,8.8-9.56,3.46-2.19,6.97-4.31,10.76-5.91,3.29-1.39,6.71-2.3,10.24-2.83,4.1-.61,8.21-.63,12.32-.18,2.96,.32,5.89,.8,8.84,1.18,2.62,.35,5.24,.69,7.87,.99,2.7,.3,5.4,.59,8.11,.8,2.16,.17,4.33,.22,6.5,.34,4.41,.25,8.82,.1,13.22-.15,4.33-.24,8.64-.74,12.92-1.48,6.44-1.12,12.76-2.72,18.94-4.84,6.04-2.08,11.9-4.56,17.58-7.49,.94-.49,1.9-.95,2.85-1.42,.02,.12,.05,.24,.07,.36Z"/>
    <path class="cls-5" d="M311.47,159.68c-.1-4.41,3.12-7.91,7.72-8.69,3.48-.58,6.72,.17,9.56,2.34,2.32,1.77,3.8,4.09,4.11,7.02,.33,3.07-1.01,6.44-4.54,8.4-5.51,3.06-12.58,.58-15.53-4.3-.87-1.44-1.35-3.01-1.31-4.78Zm13.58-6.36c-.29,.01-.51,0-.73,.04-3.37,.51-4.82,3.53-3,6.33,1.31,2.02,4.12,2.78,6.34,1.83,2.64-1.12,3.06-3.83,1.76-5.82-1.03-1.57-2.55-2.36-4.38-2.39Z"/>
    <path class="cls-7" d="M363.41,181.18c-.07-.21-.13-.43-.2-.64,.25-.81,.49-1.62,.74-2.44,.19,1.12-.16,2.1-.54,3.08Z"/>
    <path class="cls-6" d="M464.01,144.81c-.02-.12-.05-.24-.07-.36,.37-.2,.74-.39,1.11-.59h0c-.12,.58-.62,.73-1.05,.95Z"/>
    <path class="cls-6" d="M465.05,143.86c.1-.06,.19-.13,.29-.19,.02,.05,.04,.09,.06,.14-.11,.02-.23,.04-.34,.06,0,0,0,0,0,0Z"/>
  </g>
  <text class="cls-2" transform="translate(197.02 338.63)"><tspan x="0" y="0">The Hummingbird </tspan><tspan x="64.9" y="27.54">Heroes</tspan></text>
</svg>