<?xml version="1.0" standalone="no"?>
<!DOCTYPE svg PUBLIC "-//W3C//DTD SVG 20010904//EN"
 "http://www.w3.org/TR/2001/REC-SVG-20010904/DTD/svg10.dtd">
<svg version="1.0" xmlns="http://www.w3.org/2000/svg"
 width="225.000000pt" height="225.000000pt" viewBox="0 0 225.000000 225.000000"
 preserveAspectRatio="xMidYMid meet">
<metadata>
Created by potrace 1.14, written by Peter Selinger 2001-2017
</metadata>
<g transform="translate(0.000000,225.000000) scale(0.100000,-0.100000)"
fill="#000000" stroke="none">
<path d="M127 2220 c-8 -38 9 -218 28 -312 77 -365 218 -545 551 -709 151 -74
148 -64 58 -199 -87 -131 -130 -213 -168 -320 -15 -41 -42 -98 -61 -127 -43
-66 -180 -225 -322 -376 -109 -115 -143 -161 -129 -174 19 -19 187 111 367
283 54 52 103 94 108 94 13 0 14 5 -4 -54 -8 -27 -13 -52 -9 -55 3 -3 17 10
32 29 132 174 317 307 479 346 101 25 186 70 261 139 84 78 132 158 178 300
60 182 107 269 194 356 102 102 229 164 428 209 63 14 71 35 10 25 -93 -14
-246 -46 -307 -65 l-63 -19 -22 23 c-41 44 -74 59 -131 58 -67 0 -145 -34
-204 -87 -37 -34 -44 -37 -57 -23 -20 19 -68 141 -99 244 -38 134 -157 388
-180 387 -30 -2 -116 -349 -117 -469 0 -70 16 -110 71 -169 l36 -39 -45 35
c-169 134 -252 196 -338 255 -174 120 -243 177 -383 312 -76 72 -142 132 -147
132 -5 0 -12 -13 -15 -30z"/>
</g>
</svg>
